<svg version="1.1" id="Layer_1" xmlns="http://www.w3.org/2000/svg" xmlns:xlink="http://www.w3.org/1999/xlink" x="0px" y="0px"
	 width="100%" viewBox="0 0 600 600" enable-background="new 0 0 600 600" xml:space="preserve">
<path fill="#000000" opacity="0.000000" stroke="none" 
	d="
M336.000000,601.000000 
	C224.000000,601.000000 112.500000,601.000000 1.000000,601.000000 
	C1.000000,401.000000 1.000000,201.000000 1.000000,1.000000 
	C201.000000,1.000000 401.000000,1.000000 601.000000,1.000000 
	C601.000000,201.000000 601.000000,401.000000 601.000000,601.000000 
	C512.833313,601.000000 424.666656,601.000000 336.000000,601.000000 
M463.015442,330.013519 
	C463.015442,330.013519 463.026978,330.084991 463.558624,329.947052 
	C463.734467,329.640472 463.910339,329.333923 464.013824,329.017303 
	C464.013824,329.017303 464.034546,329.087372 464.555237,328.949707 
	C464.689301,328.641785 464.823364,328.333893 465.110474,327.681458 
	C465.110474,327.681458 465.047028,327.309784 465.697784,326.830414 
	C465.837982,325.232483 465.978149,323.634521 466.831512,321.565491 
	C467.168152,315.715149 467.504791,309.864838 467.965057,303.358093 
	C468.011108,302.916199 468.057159,302.474335 468.794006,301.661896 
	C468.812897,300.102600 468.831787,298.543335 468.966339,296.161285 
	C468.918549,294.780396 468.870758,293.399475 469.007050,291.183929 
	C469.368683,286.802887 469.730286,282.421875 470.792969,277.614746 
	C471.131226,272.748749 471.469513,267.882721 472.163300,262.328918 
	C472.382019,260.879517 472.600739,259.430084 472.939026,257.329895 
	C472.892853,256.893494 472.846710,256.457092 472.968567,255.174805 
	C473.591003,249.777649 474.213440,244.380493 474.958496,238.331665 
	C474.914734,237.893753 474.870972,237.455826 475.016876,236.189148 
	C475.612976,231.114212 476.209106,226.039276 476.921265,220.236755 
	C476.881744,219.503204 476.842194,218.769638 476.988068,217.295517 
	C476.940704,215.186600 476.893341,213.077682 476.975250,210.089157 
	C477.335968,205.093948 477.696686,200.098755 478.888397,194.982697 
	C481.956970,188.142746 477.626587,179.930984 470.344879,179.052200 
	C465.966644,178.523819 461.550873,178.173920 457.143707,178.058075 
	C453.260193,177.955963 452.780060,176.699799 453.518433,172.863220 
	C454.443939,168.054260 454.494476,162.862030 453.752991,158.014114 
	C453.143402,154.028534 450.441132,150.549591 445.796600,150.037628 
	C438.856903,149.272659 431.888397,148.769150 424.319519,148.009491 
	C423.905579,148.058243 423.491638,148.106995 422.214508,148.009628 
	C411.101044,147.003784 399.980743,146.063950 388.881500,144.920197 
	C387.234863,144.750519 385.687378,143.618896 383.811157,142.272186 
	C381.971130,138.053131 379.245178,135.073914 374.173981,135.329544 
	C356.465027,136.222229 338.755737,137.108002 320.665955,137.197937 
	C314.110931,136.848114 307.555908,136.498291 300.591309,135.997299 
	C300.591309,135.997299 300.155609,135.969635 299.695251,135.222977 
	C296.375366,135.114777 293.040222,135.171783 289.738525,134.866531 
	C280.819550,134.041946 271.914825,133.063202 262.596588,131.996490 
	C262.596588,131.996490 262.163269,131.967651 261.771942,131.251526 
	C254.844467,130.562454 247.916977,129.873398 240.095596,129.028351 
	C234.044449,128.013535 228.026260,126.652206 221.933716,126.072861 
	C214.553970,125.371140 207.107254,125.401520 199.697662,124.973846 
	C196.004395,124.760681 193.841721,126.320160 192.223831,130.199905 
	C192.203751,132.455322 192.183670,134.710739 192.021973,137.613815 
	C192.002014,138.055023 191.982071,138.496216 191.231705,139.253128 
	C189.892639,139.395493 188.423553,139.968216 187.235870,139.609436 
	C180.242416,137.496719 176.868347,141.702347 173.038712,147.009415 
	C165.145248,147.352173 157.246582,147.606567 149.360306,148.071442 
	C144.767670,148.342163 141.943893,151.437851 142.049454,156.016174 
	C142.300888,166.921860 142.634399,177.826385 143.039062,188.727509 
	C143.258621,194.642441 143.609512,200.555527 144.045242,206.458801 
	C145.009171,219.518402 146.149307,232.565399 147.048401,245.629196 
	C147.545929,252.858353 147.638977,260.114349 148.024643,267.352386 
	C148.995682,285.577057 149.991104,303.800598 151.053009,322.020142 
	C151.636047,332.023560 152.449448,342.013611 153.022354,352.017517 
	C153.775101,365.161346 154.425659,378.311310 155.057373,391.461670 
	C155.444946,399.529907 155.652344,407.606934 156.052094,415.674469 
	C156.702271,428.796539 157.443771,441.914032 157.933334,455.748718 
	C158.010239,456.483124 158.087158,457.217529 157.889664,458.718842 
	C157.637955,460.798401 157.386246,462.877960 156.925873,465.773041 
	C154.856705,474.343903 156.806793,478.857635 164.312057,482.764069 
	C171.489120,483.429321 178.666183,484.094574 186.620270,485.146790 
	C190.354630,485.441742 194.098373,485.649292 197.821472,486.049103 
	C206.554977,486.986908 215.278625,488.016754 224.360733,489.802155 
	C236.206711,490.480591 248.052704,491.159058 260.672180,492.190521 
	C267.125671,492.733032 273.579193,493.275543 280.918121,493.956726 
	C283.669525,494.281799 286.428680,494.552979 289.170349,494.945862 
	C292.422516,495.411865 295.644867,496.121094 298.907440,496.469604 
	C302.248322,496.826477 305.622223,496.874573 309.408630,497.767426 
	C311.221619,497.867035 313.038422,497.921478 314.846985,498.073639 
	C325.571899,498.976013 336.294952,499.901031 347.886322,500.936676 
	C352.208008,501.300934 356.529694,501.665192 360.992065,502.871490 
	C363.087433,503.276031 365.166290,503.852295 367.281006,504.055878 
	C377.480225,505.037842 387.689056,505.919403 398.650726,507.222870 
	C401.574951,507.488342 404.501221,507.733643 407.423035,508.023315 
	C414.312042,508.706329 418.726105,504.960663 418.958618,498.149414 
	C419.049530,495.486969 419.016785,492.820282 419.787048,489.697144 
	C420.520782,480.403748 421.107758,471.095947 422.020935,461.820190 
	C423.588867,445.892731 425.360474,429.985321 427.813812,413.664703 
	C427.876465,410.531372 427.732697,407.377747 428.037842,404.268219 
	C429.287781,391.530670 430.674652,378.806549 432.723328,365.702698 
	C432.834015,361.210327 431.988251,356.391357 433.373535,352.334167 
	C434.388336,349.361969 434.214386,346.891754 434.882538,343.992004 
	C435.618408,339.663483 436.354248,335.334930 437.002747,330.989532 
	C437.002747,330.989532 436.983582,331.076447 437.862213,331.008026 
	C439.294983,331.220673 440.754486,331.724854 442.155975,331.596344 
	C448.788544,330.988159 455.554779,335.220978 462.010162,331.008057 
	C462.010162,331.008057 462.033936,331.082184 462.563660,330.946991 
	C462.737732,330.641418 462.911804,330.335876 463.015442,330.013519 
z"/>
<path fill="#FEFEFE" opacity="1.000000" stroke="none" 
	d="
M321.046570,137.996399 
	C338.755737,137.108002 356.465027,136.222229 374.173981,135.329544 
	C379.245178,135.073914 381.971130,138.053131 383.791382,142.941742 
	C383.849487,145.773483 383.927368,147.935669 384.000671,150.532043 
	C384.975128,165.659622 386.049011,180.347504 386.905731,195.048050 
	C387.715393,208.940704 388.260376,222.848541 388.987579,236.746262 
	C389.948120,255.102203 390.951294,273.455963 391.976166,291.808441 
	C392.945557,309.168121 393.998047,326.523163 394.956726,343.883423 
	C395.997742,362.734619 396.963745,381.589966 397.979492,400.442566 
	C398.710358,414.008057 399.469086,427.572021 400.251526,441.539734 
	C400.163544,449.271942 400.039398,456.601074 399.552521,464.001160 
	C396.235901,465.037018 393.342865,466.471527 390.314758,466.863922 
	C384.906799,467.564667 379.419128,467.670380 373.961578,467.965149 
	C355.096680,468.984100 336.233276,470.036255 317.363739,470.962006 
	C301.626465,471.734100 285.880524,472.328644 270.141632,473.069672 
	C269.081360,473.119568 268.048004,473.741547 266.539612,474.085205 
	C261.713684,474.316772 257.350281,474.560608 252.523422,474.775696 
	C247.349213,475.111176 242.638458,475.475372 237.558960,475.883667 
	C236.450592,475.983307 235.710999,476.038818 234.509888,476.030029 
	C223.724411,476.295044 213.399841,476.607422 203.077850,476.989471 
	C202.353668,477.016296 201.648514,477.557678 200.510132,477.893433 
	C198.383881,477.986725 196.682037,478.046326 194.520706,478.034119 
	C185.709808,478.275604 177.358383,478.588898 168.709167,478.691162 
	C161.534821,477.542053 160.707489,476.660278 159.798401,469.497925 
	C159.440353,466.677124 158.996078,463.867279 158.570267,460.907776 
	C158.055862,462.358765 157.595200,463.658142 157.134537,464.957520 
	C157.386246,462.877960 157.637955,460.798401 158.202942,458.129944 
	C158.393051,456.705170 158.269897,455.869324 158.146729,455.033478 
	C157.443771,441.914032 156.702271,428.796539 156.052094,415.674469 
	C155.652344,407.606934 155.444946,399.529907 155.057373,391.461670 
	C154.425659,378.311310 153.775101,365.161346 153.022354,352.017517 
	C152.449448,342.013611 151.636047,332.023560 151.053009,322.020142 
	C149.991104,303.800598 148.995682,285.577057 148.024643,267.352386 
	C147.638977,260.114349 147.545929,252.858353 147.048401,245.629196 
	C146.149307,232.565399 145.009171,219.518402 144.045242,206.458801 
	C143.609512,200.555527 143.258621,194.642441 143.039062,188.727509 
	C142.634399,177.826385 142.300888,166.921860 142.049454,156.016174 
	C141.943893,151.437851 144.767670,148.342163 149.360306,148.071442 
	C157.246582,147.606567 165.145248,147.352173 173.727173,147.243408 
	C180.792999,146.989853 187.164993,146.412292 193.548782,146.033371 
	C207.070526,145.230728 220.598389,144.531708 234.523590,143.772827 
	C239.577362,143.520416 244.231262,143.285355 249.360748,143.052383 
	C268.224762,142.081055 286.613220,141.107635 305.164368,140.328278 
	C305.882141,140.356720 306.437195,140.191116 307.440399,140.029907 
	C310.566895,139.963287 313.245209,139.892242 316.325043,139.881134 
	C318.166565,139.292862 319.606567,138.644638 321.046570,137.996399 
M236.217224,416.188385 
	C236.065201,416.058136 235.913162,415.927887 235.819824,415.051453 
	C235.693100,413.045685 235.566376,411.039886 235.439651,409.034119 
	C233.550735,410.063507 231.406082,410.806152 229.842560,412.200439 
	C228.175354,413.687195 227.057419,415.789917 226.488327,416.558563 
	C225.718124,412.611267 224.827164,408.045105 223.936203,403.478912 
	C220.001373,404.365509 216.066544,405.252106 211.767838,406.220673 
	C208.066818,399.035004 204.026993,398.546448 198.427338,406.298950 
	C195.435745,410.440643 193.285919,415.200714 190.886383,419.750366 
	C190.443283,420.590485 190.623367,421.759277 190.515823,422.776398 
	C190.916794,422.976715 191.317764,423.177063 191.718719,423.377411 
	C192.692108,422.114807 193.808456,420.936462 194.611359,419.573425 
	C196.801620,415.855316 198.583588,411.860840 201.087097,408.378296 
	C202.326797,406.653748 204.798325,405.814697 206.712524,404.575012 
	C207.489899,407.325714 208.682739,410.046478 208.883713,412.838654 
	C208.998337,414.431000 207.073120,416.073273 206.799438,417.808655 
	C205.989014,422.947449 205.304657,428.134979 205.114639,433.323364 
	C205.064514,434.692017 206.980530,436.132629 207.993698,437.540222 
	C209.324768,436.255402 211.585999,435.121582 211.823456,433.659180 
	C212.774643,427.801208 213.762085,421.806366 213.453247,415.929565 
	C213.183243,410.791626 216.128510,408.776672 219.526337,406.740234 
	C221.700470,405.437225 223.208206,406.500305 222.973831,408.980042 
	C222.693878,411.942017 221.938171,414.856232 221.464508,417.803375 
	C220.888153,421.389557 220.391006,424.988403 219.859604,428.581787 
	C220.608582,428.885712 221.357559,429.189667 222.106537,429.493591 
	C224.873184,425.426849 227.639816,421.360138 230.330933,417.404388 
	C231.003906,419.803131 231.554108,421.764313 232.104340,423.725525 
	C234.053940,422.721344 236.274200,422.028503 237.881821,420.630920 
	C239.719055,419.033722 241.011246,416.809601 243.326431,413.854462 
	C244.259399,420.234802 246.502243,419.673096 249.221497,417.438171 
	C249.992538,416.804504 250.751755,416.156494 251.521652,415.521423 
	C258.640747,409.649292 258.817535,409.638275 266.277069,414.563538 
	C269.892670,416.950775 273.661591,415.660828 274.815979,411.975677 
	C272.179077,411.505249 268.966034,411.805023 266.927826,410.400208 
	C261.428558,406.609924 259.120850,406.161621 253.446411,409.876312 
	C251.672501,411.037537 250.043274,412.419830 248.015244,413.952209 
	C246.507477,409.779266 244.154205,410.810608 241.717102,412.662842 
	C240.008530,413.961334 238.329208,415.298309 236.217224,416.188385 
M242.736252,267.112335 
	C224.327850,268.121399 205.920547,269.151703 187.509918,270.118347 
	C184.494705,270.276672 181.135147,270.670929 181.638809,274.332947 
	C181.837875,275.780365 185.528091,277.796143 187.593399,277.755615 
	C196.212906,277.586487 204.812973,276.623962 213.431107,276.151550 
	C245.270111,274.406006 277.112579,272.722565 308.955566,271.051270 
	C323.388092,270.293793 337.824432,269.607788 352.260345,268.916992 
	C355.221222,268.775269 358.100769,267.774750 357.569397,264.543365 
	C357.338409,263.138580 354.003662,261.241058 352.117676,261.284027 
	C343.668945,261.476440 335.240540,262.404938 326.793365,262.852722 
	C299.094238,264.321045 271.390076,265.695801 242.736252,267.112335 
M184.962326,335.566010 
	C185.263260,339.595978 188.244049,339.131165 190.883469,338.982391 
	C218.919998,337.402130 246.951141,335.724274 274.990265,334.192383 
	C296.404175,333.022461 317.827820,332.030762 339.246307,330.943939 
	C345.054535,330.649200 350.901337,330.591766 356.639984,329.783356 
	C358.265381,329.554382 359.571106,327.056305 361.023438,325.598877 
	C359.560883,324.522156 358.071228,322.479858 356.640015,322.520020 
	C344.182312,322.869598 331.729736,323.500580 319.285828,324.223389 
	C293.251282,325.735535 267.227722,327.440247 241.190308,328.898682 
	C224.759689,329.818970 208.304153,330.308990 191.881088,331.333496 
	C189.522079,331.480652 187.283051,333.551086 184.962326,335.566010 
M348.086548,353.775452 
	C337.121826,354.248352 326.150696,354.606934 315.193604,355.216766 
	C288.001251,356.730194 260.817139,358.390778 233.626022,359.927185 
	C219.526077,360.723816 205.418076,361.376923 191.314362,362.107483 
	C188.511337,362.252686 185.900574,363.446777 186.682190,366.458618 
	C187.060394,367.916016 190.078629,369.652466 191.866104,369.614044 
	C199.820068,369.442932 207.756943,368.603241 215.707809,368.138855 
	C233.618042,367.092834 251.529968,366.069611 269.446533,365.139740 
	C297.652374,363.675903 325.862732,362.299774 354.070526,360.872925 
	C355.722931,360.789368 357.570892,361.000244 358.964233,360.324432 
	C360.506989,359.576141 361.631348,357.965240 362.937927,356.730011 
	C361.439270,355.501312 360.057831,353.455963 358.416565,353.220398 
	C355.354492,352.780762 352.141388,353.392944 348.086548,353.775452 
M308.457855,301.948883 
	C322.560089,301.241486 336.663544,300.556488 350.763214,299.801117 
	C352.741638,299.695129 354.884308,299.631165 356.606354,298.817993 
	C357.771149,298.267975 358.908417,296.468750 358.975891,295.171967 
	C359.027618,294.177734 357.575226,292.712952 356.447601,292.162384 
	C355.366852,291.634705 353.837921,291.933563 352.513977,292.008942 
	C330.136566,293.283051 307.765106,294.668152 285.382660,295.845490 
	C262.321564,297.058502 239.247635,298.025848 216.184296,299.198822 
	C206.737350,299.679352 197.285324,300.239594 187.880310,301.200928 
	C186.173218,301.375458 184.682983,303.671448 183.092636,304.988068 
	C184.599304,306.187134 186.131638,308.451965 187.608597,308.416443 
	C199.225922,308.136749 210.835800,307.472992 222.442047,306.821991 
	C250.791260,305.231873 279.137268,303.584930 308.457855,301.948883 
M268.721497,197.063461 
	C259.611237,197.660492 250.505157,198.332840 241.389862,198.839020 
	C221.819504,199.925766 202.245163,200.941879 182.670288,201.944672 
	C180.122086,202.075211 177.886490,202.453217 177.915741,205.673676 
	C177.945908,208.993820 180.307297,209.253952 182.802094,209.127136 
	C188.608475,208.831924 194.411896,208.478943 200.217087,208.159607 
	C224.765045,206.809311 249.310287,205.406143 273.862183,204.131546 
	C296.264862,202.968521 318.675659,201.962646 341.080719,200.844330 
	C344.394409,200.678940 347.754517,200.543457 350.973206,199.843063 
	C352.165100,199.583694 353.932831,197.605728 353.794739,196.648514 
	C353.600189,195.299240 351.967865,193.231537 350.791901,193.118484 
	C346.839783,192.738602 342.810699,192.963928 338.823151,193.180069 
	C315.770111,194.429581 292.720520,195.742859 268.721497,197.063461 
M368.598694,402.260101 
	C363.908783,380.248779 343.180664,372.175171 325.891541,378.797272 
	C304.866455,386.850372 299.818787,413.283234 315.137421,429.813843 
	C324.224457,439.619843 342.946899,441.630554 352.704468,435.369354 
	C364.729248,427.653412 370.153656,417.201691 368.598694,402.260101 
M288.206421,230.883240 
	C295.477448,230.336533 302.746521,229.761765 310.020538,229.258011 
	C312.649994,229.075897 315.276886,228.907288 315.050812,225.312363 
	C314.822815,221.687302 312.050537,221.864258 309.513550,222.003937 
	C298.250885,222.624069 286.994415,223.362732 275.729279,223.931122 
	C259.649750,224.742432 243.563599,225.423187 227.483078,226.216660 
	C225.671417,226.306061 223.682449,226.381485 222.137711,227.171371 
	C220.898560,227.805038 219.399460,229.583557 219.499695,230.723557 
	C219.602249,231.889954 221.365021,233.166061 222.679962,233.881638 
	C223.579010,234.370895 224.958801,234.035187 226.119110,233.977249 
	C246.499832,232.959488 266.879852,231.927658 288.206421,230.883240 
M158.119522,446.994965 
	C158.200485,447.616333 158.281448,448.237671 158.362411,448.859039 
	C158.549942,448.825439 158.737457,448.791870 158.924988,448.758270 
	C158.671722,447.991425 158.418472,447.224579 158.119522,446.994965 
z"/>
<path fill="#B9A067" opacity="1.000000" stroke="none" 
	d="
M434.034424,344.132996 
	C434.214386,346.891754 434.388336,349.361969 433.373535,352.334167 
	C431.988251,356.391357 432.834015,361.210327 432.098633,366.173035 
	C430.747375,373.378845 429.935425,380.106415 429.315125,386.851624 
	C428.481415,395.917114 427.795776,404.996216 427.046570,414.069489 
	C425.360474,429.985321 423.588867,445.892731 422.020935,461.820190 
	C421.107758,471.095947 420.520782,480.403748 419.386688,489.479187 
	C418.672455,486.531586 418.358582,483.802002 418.029480,480.718994 
	C417.879913,479.591278 417.745544,478.816925 417.611176,478.042603 
	C417.302643,478.118713 416.994141,478.194824 416.685638,478.270935 
	C417.127014,479.850098 417.568390,481.429260 418.015625,483.341736 
	C418.005798,484.119232 417.990143,484.563416 417.614136,485.047974 
	C416.173920,486.792480 414.590515,488.366699 414.110901,490.225677 
	C412.796234,495.321320 409.871887,497.458618 404.949219,496.528809 
	C403.388000,496.233948 401.686279,496.693726 400.120148,496.411896 
	C396.065552,495.682373 391.447113,497.723694 388.312714,493.966064 
	C389.090424,493.282379 389.546875,492.643646 390.446869,492.004578 
	C393.257690,492.006073 395.624908,492.007904 398.039551,492.333191 
	C399.058350,492.769348 400.029785,492.882080 401.405304,492.995819 
	C403.540588,492.666382 405.271790,492.335907 407.379272,491.996307 
	C408.819031,490.900085 410.557556,489.956879 410.825317,488.700287 
	C411.813538,484.062500 412.303986,479.319366 413.004883,474.619293 
	C413.343109,472.351410 413.723083,470.089600 414.102173,467.828064 
	C414.659668,464.502472 415.486389,461.196899 415.715637,457.849731 
	C415.882111,455.418427 414.883484,452.899963 415.095490,450.480927 
	C415.377075,447.267761 416.634644,444.142609 416.942322,440.928833 
	C418.093353,428.907837 418.833618,416.845642 420.096344,404.837646 
	C421.465607,391.816315 423.314453,378.846069 424.799408,365.835876 
	C425.176422,362.532654 424.810822,359.150696 425.061615,355.825653 
	C425.440430,350.802765 425.903381,345.775146 426.630249,340.793274 
	C427.174744,337.061401 428.630066,333.431519 428.911530,329.698273 
	C429.624908,320.235321 429.272095,310.924255 431.518005,301.318237 
	C434.495850,288.581848 433.918671,275.026825 435.031311,261.837250 
	C435.739380,253.443787 436.659576,245.065582 437.634338,236.697968 
	C438.665466,227.846436 439.898071,219.018570 440.998169,210.174820 
	C442.034515,201.843796 442.949982,193.496918 444.089233,185.180389 
	C444.247772,184.023041 445.383240,182.999527 446.312927,182.098587 
	C447.037811,183.190781 447.516235,184.098450 447.850403,185.329254 
	C446.810852,189.839874 445.507812,193.987961 445.098480,198.222427 
	C443.974976,209.845276 443.371643,221.517838 442.291382,233.145538 
	C441.093658,246.037125 439.534607,258.894684 438.247101,271.778473 
	C437.084259,283.414307 436.104553,295.068298 434.984985,306.708588 
	C434.512604,311.619690 433.764923,316.506958 433.396576,321.424072 
	C433.255341,323.309113 433.822906,325.247284 434.066284,327.609680 
	C434.045197,331.380188 434.025299,334.702271 434.003174,338.459595 
	C434.012054,340.640869 434.023224,342.386932 434.034424,344.132996 
z"/>
<path fill="#FCDC8C" opacity="1.000000" stroke="none" 
	d="
M447.994690,185.006134 
	C447.516235,184.098450 447.037811,183.190781 446.260864,181.762421 
	C444.786041,179.416962 443.609802,177.592209 442.248413,175.459488 
	C441.067688,173.067276 440.072113,170.983017 439.062805,168.531128 
	C438.270142,163.937637 434.937408,162.653244 431.428986,162.142349 
	C426.681244,161.451019 421.857788,161.279510 417.051636,160.503571 
	C416.370667,158.736252 415.704895,157.350357 415.016479,155.734711 
	C414.993896,155.504959 414.939484,155.046494 414.922058,154.679596 
	C412.578247,153.247208 410.251892,152.181702 407.464478,151.098755 
	C402.335358,151.066895 397.667267,151.052490 392.748657,150.749878 
	C390.957153,150.383606 389.416168,150.305557 387.511688,150.196503 
	C386.418701,150.121307 385.689209,150.077118 384.976074,149.610413 
	C386.059479,148.122421 387.152832,146.123016 388.188904,146.152283 
	C392.805237,146.282669 397.394196,147.188248 402.013611,147.448273 
	C409.026031,147.843033 416.055481,147.935089 423.077698,148.155731 
	C423.491638,148.106995 423.905579,148.058243 424.737000,148.454285 
	C430.759857,149.925201 436.330780,151.246948 441.979095,151.904388 
	C449.448120,152.773788 453.998444,158.205902 452.932495,165.513000 
	C452.297058,169.869125 451.866302,174.255127 451.314758,178.868622 
	C457.546631,179.948471 463.345978,181.073166 469.184204,181.934647 
	C476.448120,183.006454 479.795380,187.846207 478.057434,195.103546 
	C477.696686,200.098755 477.335968,205.093948 476.553467,210.632065 
	C474.526947,213.640823 473.870697,216.013901 476.802673,218.036087 
	C476.842194,218.769638 476.881744,219.503204 476.472168,220.626740 
	C475.358490,221.774460 474.154175,222.507584 474.118317,223.293976 
	C473.910309,227.854309 473.977417,232.427170 473.577637,236.909821 
	C472.803131,235.524353 472.546173,234.157486 471.974335,232.938324 
	C470.402527,229.587341 468.698639,226.298309 467.028564,222.614655 
	C465.341705,218.827530 463.673309,215.410538 461.869263,211.672638 
	C459.845642,207.894287 457.957672,204.436829 455.931183,200.680023 
	C455.217743,199.251205 454.642853,198.121735 454.012268,196.634201 
	C451.969269,192.519470 449.981964,188.762802 447.994690,185.006134 
z"/>
<path fill="#FBDD92" opacity="1.000000" stroke="none" 
	d="
M305.001648,140.134232 
	C286.613220,141.107635 268.224762,142.081055 249.089798,142.760803 
	C245.535858,142.255432 242.726135,142.070587 239.921478,141.827286 
	C229.038788,140.883194 218.164810,139.815796 207.268494,139.075119 
	C205.590912,138.961105 203.813370,140.317963 201.645233,140.987656 
	C198.126312,140.299637 195.044220,139.618530 191.962112,138.937424 
	C191.982071,138.496216 192.002014,138.055023 192.341873,136.988129 
	C192.774323,134.193542 192.886856,132.024643 192.999390,129.855728 
	C193.841721,126.320160 196.004395,124.760681 199.697662,124.973846 
	C207.107254,125.401520 214.553970,125.371140 221.933716,126.072861 
	C228.026260,126.652206 234.044449,128.013535 240.826630,129.358856 
	C248.426193,130.448792 255.294724,131.208221 262.163269,131.967651 
	C262.163269,131.967651 262.596588,131.996490 263.076904,132.329926 
	C275.756683,133.765457 287.956146,134.867538 300.155609,135.969635 
	C300.155609,135.969635 300.591309,135.997299 301.079712,136.328613 
	C305.074310,137.103973 308.601868,137.428711 312.075806,138.052216 
	C313.420868,138.293610 314.644562,139.211487 315.923523,139.821198 
	C313.245209,139.892242 310.566895,139.963287 307.294983,139.795181 
	C306.134827,139.748764 305.568237,139.941498 305.001648,140.134232 
z"/>
<path fill="#CEB272" opacity="1.000000" stroke="none" 
	d="
M308.981659,497.057831 
	C305.622223,496.874573 302.248322,496.826477 298.907440,496.469604 
	C295.644867,496.121094 292.422516,495.411865 289.170349,494.945862 
	C286.428680,494.552979 283.669525,494.281799 280.364960,493.513153 
	C279.446899,492.762604 279.106995,492.225006 278.713470,492.182404 
	C268.802155,491.109253 258.885132,490.088135 248.522522,489.037323 
	C241.736084,488.322754 235.396255,487.628754 229.272034,486.673279 
	C235.793915,485.942535 242.093369,485.283203 248.408340,485.056396 
	C254.979492,484.820404 261.565643,484.997162 268.145233,485.006073 
	C269.310211,485.007629 270.484802,484.986755 271.638580,485.119141 
	C282.764282,486.395905 293.886566,487.702576 305.009583,489.002625 
	C306.323303,489.156158 307.633911,489.337708 308.948944,489.478363 
	C319.961731,490.656311 330.966675,491.917450 341.991760,492.966827 
	C348.421997,493.578888 355.135162,492.886902 361.277588,494.485596 
	C372.027954,497.283691 382.873322,497.585724 393.787323,498.008972 
	C397.835907,498.165985 402.601440,497.140778 405.741730,498.931488 
	C409.474457,501.059998 412.445435,501.019958 415.977661,500.347900 
	C413.571442,505.955902 409.128998,506.358521 404.187439,505.848755 
	C397.435181,505.152252 390.668152,504.598480 383.535706,503.953094 
	C375.726410,503.291626 368.288910,502.660553 360.851379,502.029480 
	C356.529694,501.665192 352.208008,501.300934 347.346558,500.506897 
	C345.940277,499.724091 345.098358,499.154114 344.203400,499.052887 
	C337.799255,498.328339 331.396881,497.487762 324.968903,497.105621 
	C319.657654,496.789856 314.312042,497.051849 308.981659,497.057831 
z"/>
<path fill="#EACA82" opacity="1.000000" stroke="none" 
	d="
M467.046967,222.984772 
	C468.698639,226.298309 470.402527,229.587341 471.974335,232.938324 
	C472.546173,234.157486 472.803131,235.524353 473.796814,236.914978 
	C474.389923,237.006149 474.827209,237.017914 474.827209,237.017914 
	C474.870972,237.455826 474.914734,237.893753 474.496155,238.684540 
	C471.320953,241.504425 470.458374,253.382553 472.800537,256.020691 
	C472.846710,256.457092 472.892853,256.893494 472.511414,257.675323 
	C468.764374,259.507812 468.930450,261.187378 471.807800,263.016724 
	C471.469513,267.882721 471.131226,272.748749 470.045837,277.892639 
	C468.619476,282.460052 467.911987,286.745728 467.332916,291.048706 
	C467.299011,291.300568 468.302338,291.692047 468.822968,292.018585 
	C468.870758,293.399475 468.918549,294.780396 468.554565,296.591492 
	C463.897583,298.658508 466.996002,300.353333 468.103180,302.032440 
	C468.057159,302.474335 468.011108,302.916199 467.646271,303.931396 
	C463.463135,309.884705 465.229218,316.287628 464.091034,322.527222 
	C461.628113,328.861877 458.330505,330.687805 453.074402,328.907898 
	C454.601196,321.724976 456.087860,314.821350 456.926605,307.839874 
	C457.951263,299.310486 458.377258,290.710754 459.159912,282.150391 
	C460.738312,264.885986 462.287903,247.617676 464.104004,230.377792 
	C464.371490,227.838303 466.031342,225.445465 467.046967,222.984772 
z"/>
<path fill="#DCDDE5" opacity="1.000000" stroke="none" 
	d="
M191.596909,139.095276 
	C195.044220,139.618530 198.126312,140.299637 202.096405,140.987473 
	C212.337234,141.338974 221.692688,141.631653 231.039291,142.100800 
	C232.093048,142.153702 233.096802,143.202972 234.123749,143.790192 
	C220.598389,144.531708 207.070526,145.230728 193.548782,146.033371 
	C187.164993,146.412292 180.792999,146.989853 174.189880,147.181549 
	C176.868347,141.702347 180.242416,137.496719 187.235870,139.609436 
	C188.423553,139.968216 189.892639,139.395493 191.596909,139.095276 
z"/>
<path fill="#E4D6AD" opacity="1.000000" stroke="none" 
	d="
M478.472900,195.043121 
	C479.795380,187.846207 476.448120,183.006454 469.184204,181.934647 
	C463.345978,181.073166 457.546631,179.948471 451.314758,178.868622 
	C451.866302,174.255127 452.297058,169.869125 452.932495,165.513000 
	C453.998444,158.205902 449.448120,152.773788 441.979095,151.904388 
	C436.330780,151.246948 430.759857,149.925201 425.043304,148.526749 
	C431.888397,148.769150 438.856903,149.272659 445.796600,150.037628 
	C450.441132,150.549591 453.143402,154.028534 453.752991,158.014114 
	C454.494476,162.862030 454.443939,168.054260 453.518433,172.863220 
	C452.780060,176.699799 453.260193,177.955963 457.143707,178.058075 
	C461.550873,178.173920 465.966644,178.523819 470.344879,179.052200 
	C477.626587,179.930984 481.956970,188.142746 478.472900,195.043121 
z"/>
<path fill="#948256" opacity="1.000000" stroke="none" 
	d="
M229.056427,486.934753 
	C235.396255,487.628754 241.736084,488.322754 248.536713,489.323914 
	C249.002563,489.822662 249.007629,490.014252 248.551056,490.166687 
	C240.061691,489.754791 232.033981,489.382080 224.006256,489.009338 
	C215.278625,488.016754 206.554977,486.986908 197.821472,486.049103 
	C194.098373,485.649292 190.354630,485.441742 185.905869,484.771667 
	C181.155045,483.881989 177.118637,483.367462 173.153229,482.475861 
	C175.537491,481.718079 177.855881,481.001862 180.162781,481.037140 
	C183.430161,481.087097 186.689072,481.691254 190.232452,482.329865 
	C197.679672,483.394775 204.846039,484.188354 212.428970,485.000671 
	C218.249161,485.657867 223.652786,486.296295 229.056427,486.934753 
z"/>
<path fill="#948256" opacity="1.000000" stroke="none" 
	d="
M383.907471,503.983521 
	C390.668152,504.598480 397.435181,505.152252 404.187439,505.848755 
	C409.128998,506.358521 413.571442,505.955902 415.987976,499.939941 
	C416.679779,494.454132 417.327118,489.730835 417.974487,485.007568 
	C417.990143,484.563416 418.005798,484.119232 418.023987,483.018585 
	C418.032562,481.932190 418.038635,481.502289 418.044678,481.072388 
	C418.358582,483.802002 418.672455,486.531586 419.013367,489.708374 
	C419.016785,492.820282 419.049530,495.486969 418.958618,498.149414 
	C418.726105,504.960663 414.312042,508.706329 407.423035,508.023315 
	C404.501221,507.733643 401.574951,507.488342 397.977783,506.776917 
	C392.839081,505.548492 388.373260,504.766022 383.907471,503.983521 
z"/>
<path fill="#CBB897" opacity="1.000000" stroke="none" 
	d="
M157.030212,465.365295 
	C157.595200,463.658142 158.055862,462.358765 158.570267,460.907776 
	C158.996078,463.867279 159.440353,466.677124 159.798401,469.497925 
	C160.707489,476.660278 161.534821,477.542053 168.822128,478.966766 
	C169.215515,479.956512 169.302643,480.865570 169.164902,480.901001 
	C167.472214,481.336761 165.746628,481.644653 164.010773,482.000671 
	C163.992020,482.015717 163.957932,482.049652 163.957932,482.049652 
	C156.806793,478.857635 154.856705,474.343903 157.030212,465.365295 
z"/>
<path fill="#A9966A" opacity="1.000000" stroke="none" 
	d="
M309.195129,497.412628 
	C314.312042,497.051849 319.657654,496.789856 324.968903,497.105621 
	C331.396881,497.487762 337.799255,498.328339 344.203400,499.052887 
	C345.098358,499.154114 345.940277,499.724091 346.912689,500.447754 
	C336.294952,499.901031 325.571899,498.976013 314.846985,498.073639 
	C313.038422,497.921478 311.221619,497.867035 309.195129,497.412628 
z"/>
<path fill="#948256" opacity="1.000000" stroke="none" 
	d="
M452.746979,329.152649 
	C458.330505,330.687805 461.628113,328.861877 464.281677,322.476868 
	C464.499878,322.067261 464.894012,322.036621 464.906342,322.475708 
	C464.961456,324.379822 465.004242,325.844788 465.047028,327.309784 
	C465.047028,327.309784 465.110474,327.681458 464.757507,327.889526 
	C464.281219,328.427521 464.157867,328.757446 464.034546,329.087372 
	C464.034546,329.087372 464.013824,329.017303 463.759277,329.054077 
	C463.345490,329.422241 463.186218,329.753601 463.026978,330.084991 
	C463.026978,330.084991 463.015442,330.013519 462.752747,330.043030 
	C462.338013,330.409119 462.185974,330.745667 462.033936,331.082184 
	C462.033936,331.082184 462.010162,331.008057 461.577393,330.933411 
	C455.087708,330.611633 449.032318,330.267334 442.972992,330.172577 
	C440.981720,330.141388 438.980347,330.756744 436.983582,331.076447 
	C436.983582,331.076447 437.002747,330.989532 436.684601,331.110657 
	C435.579437,333.495972 434.792419,335.760162 434.005432,338.024353 
	C434.025299,334.702271 434.045197,331.380188 434.377106,327.582886 
	C435.106537,327.115601 435.523895,327.123566 436.221252,327.373352 
	C438.000397,327.744598 439.499603,327.873962 441.391235,328.034607 
	C443.860474,328.354797 445.937256,328.643707 448.410889,328.973633 
	C450.120850,329.060699 451.433899,329.106659 452.746979,329.152649 
z"/>
<path fill="#EADFBC" opacity="1.000000" stroke="none" 
	d="
M422.646118,148.082672 
	C416.055481,147.935089 409.026031,147.843033 402.013611,147.448273 
	C397.394196,147.188248 392.805237,146.282669 388.188904,146.152283 
	C387.152832,146.123016 386.059479,148.122421 384.737396,149.622070 
	C384.482300,150.056229 384.005249,150.097870 384.005249,150.097870 
	C383.927368,147.935669 383.849487,145.773483 383.932800,143.271790 
	C385.687378,143.618896 387.234863,144.750519 388.881500,144.920197 
	C399.980743,146.063950 411.101044,147.003784 422.646118,148.082672 
z"/>
<path fill="#BEBEC6" opacity="1.000000" stroke="none" 
	d="
M427.430176,413.867096 
	C427.795776,404.996216 428.481415,395.917114 429.315125,386.851624 
	C429.935425,380.106415 430.747375,373.378845 431.742493,366.360443 
	C430.674652,378.806549 429.287781,391.530670 428.037842,404.268219 
	C427.732697,407.377747 427.876465,410.531372 427.430176,413.867096 
z"/>
<path fill="#CBB897" opacity="1.000000" stroke="none" 
	d="
M383.535706,503.953094 
	C388.373260,504.766022 392.839081,505.548492 397.599670,506.583771 
	C387.689056,505.919403 377.480225,505.037842 367.281006,504.055878 
	C365.166290,503.852295 363.087433,503.276031 360.921722,502.450500 
	C368.288910,502.660553 375.726410,503.291626 383.535706,503.953094 
z"/>
<path fill="#A9966A" opacity="1.000000" stroke="none" 
	d="
M249.012695,490.205841 
	C249.007629,490.014252 249.002563,489.822662 248.983322,489.344482 
	C258.885132,490.088135 268.802155,491.109253 278.713470,492.182404 
	C279.106995,492.225006 279.446899,492.762604 279.922241,493.443817 
	C273.579193,493.275543 267.125671,492.733032 259.987000,491.758911 
	C255.872131,490.953491 252.442413,490.579651 249.012695,490.205841 
z"/>
<path fill="#EADFBC" opacity="1.000000" stroke="none" 
	d="
M299.925415,135.596313 
	C287.956146,134.867538 275.756683,133.765457 263.280823,132.404480 
	C271.914825,133.063202 280.819550,134.041946 289.738525,134.866531 
	C293.040222,135.171783 296.375366,135.114777 299.925415,135.596313 
z"/>
<path fill="#D5B775" opacity="1.000000" stroke="none" 
	d="
M464.894012,322.036621 
	C464.894012,322.036621 464.499878,322.067261 464.309265,322.117615 
	C465.229218,316.287628 463.463135,309.884705 467.584473,304.259583 
	C467.504791,309.864838 467.168152,315.715149 466.168823,321.793823 
	C465.302063,322.026978 465.098022,322.031799 464.894012,322.036621 
z"/>
<path fill="#CBB897" opacity="1.000000" stroke="none" 
	d="
M248.551056,490.166687 
	C252.442413,490.579651 255.872131,490.953491 259.600281,491.582428 
	C248.052704,491.159058 236.206711,490.480591 224.183502,489.405762 
	C232.033981,489.382080 240.061691,489.754791 248.551056,490.166687 
z"/>
<path fill="#D5B775" opacity="1.000000" stroke="none" 
	d="
M472.884552,255.597748 
	C470.458374,253.382553 471.320953,241.504425 474.434875,239.010376 
	C474.213440,244.380493 473.591003,249.777649 472.884552,255.597748 
z"/>
<path fill="#D5B775" opacity="1.000000" stroke="none" 
	d="
M474.922058,236.603531 
	C474.827209,237.017914 474.389923,237.006149 474.170715,237.000977 
	C473.977417,232.427170 473.910309,227.854309 474.118317,223.293976 
	C474.154175,222.507584 475.358490,221.774460 476.414124,220.990540 
	C476.209106,226.039276 475.612976,231.114212 474.922058,236.603531 
z"/>
<path fill="#CBB897" opacity="1.000000" stroke="none" 
	d="
M437.422913,331.042236 
	C438.980347,330.756744 440.981720,330.141388 442.972992,330.172577 
	C449.032318,330.267334 455.087708,330.611633 461.609497,330.955505 
	C455.554779,335.220978 448.788544,330.988159 442.155975,331.596344 
	C440.754486,331.724854 439.294983,331.220673 437.422913,331.042236 
z"/>
<path fill="#EADFBC" opacity="1.000000" stroke="none" 
	d="
M316.325043,139.881134 
	C314.644562,139.211487 313.420868,138.293610 312.075806,138.052216 
	C308.601868,137.428711 305.074310,137.103973 301.284515,136.404175 
	C307.555908,136.498291 314.110931,136.848114 320.856262,137.597168 
	C319.606567,138.644638 318.166565,139.292862 316.325043,139.881134 
z"/>
<path fill="#EADFBC" opacity="1.000000" stroke="none" 
	d="
M261.967590,131.609589 
	C255.294724,131.208221 248.426193,130.448792 241.273575,129.436844 
	C247.916977,129.873398 254.844467,130.562454 261.967590,131.609589 
z"/>
<path fill="#D5B775" opacity="1.000000" stroke="none" 
	d="
M468.915009,291.601257 
	C468.302338,291.692047 467.299011,291.300568 467.332916,291.048706 
	C467.911987,286.745728 468.619476,282.460052 469.695282,278.105713 
	C469.730286,282.421875 469.368683,286.802887 468.915009,291.601257 
z"/>
<path fill="#CBB897" opacity="1.000000" stroke="none" 
	d="
M173.082214,482.852936 
	C177.118637,483.367462 181.155045,483.881989 185.517365,484.578186 
	C178.666183,484.094574 171.489120,483.429321 164.134995,482.406860 
	C163.957932,482.049652 163.992020,482.015717 164.422485,481.998535 
	C167.596054,482.271881 170.339127,482.562408 173.082214,482.852936 
z"/>
<path fill="#CBB897" opacity="1.000000" stroke="none" 
	d="
M434.003143,338.459595 
	C434.792419,335.760162 435.579437,333.495972 436.728271,331.119110 
	C436.354248,335.334930 435.618408,339.663483 434.458466,344.062500 
	C434.023224,342.386932 434.012054,340.640869 434.003143,338.459595 
z"/>
<path fill="#D5B775" opacity="1.000000" stroke="none" 
	d="
M471.985535,262.672821 
	C468.930450,261.187378 468.764374,259.507812 472.451630,258.000732 
	C472.600739,259.430084 472.382019,260.879517 471.985535,262.672821 
z"/>
<path fill="#D5B775" opacity="1.000000" stroke="none" 
	d="
M476.895386,217.665802 
	C473.870697,216.013901 474.526947,213.640823 476.488831,211.071869 
	C476.893341,213.077682 476.940704,215.186600 476.895386,217.665802 
z"/>
<path fill="#D5B775" opacity="1.000000" stroke="none" 
	d="
M468.448608,301.847168 
	C466.996002,300.353333 463.897583,298.658508 468.496735,297.002869 
	C468.831787,298.543335 468.812897,300.102600 468.448608,301.847168 
z"/>
<path fill="#DCDDE5" opacity="1.000000" stroke="none" 
	d="
M192.611603,130.027817 
	C192.886856,132.024643 192.774323,134.193542 192.412689,136.664307 
	C192.183670,134.710739 192.203751,132.455322 192.611603,130.027817 
z"/>
<path fill="#CBB897" opacity="1.000000" stroke="none" 
	d="
M464.906342,322.475708 
	C465.098022,322.031799 465.302063,322.026978 465.812225,322.029358 
	C465.978149,323.634521 465.837982,325.232483 465.372406,327.070099 
	C465.004242,325.844788 464.961456,324.379822 464.906342,322.475708 
z"/>
<path fill="#CBB897" opacity="1.000000" stroke="none" 
	d="
M158.040039,455.391113 
	C158.269897,455.869324 158.393051,456.705170 158.340134,457.746460 
	C158.087158,457.217529 158.010239,456.483124 158.040039,455.391113 
z"/>
<path fill="#CBB897" opacity="1.000000" stroke="none" 
	d="
M464.294861,329.018555 
	C464.157867,328.757446 464.281219,328.427521 464.680969,328.061829 
	C464.823364,328.333893 464.689301,328.641785 464.294861,329.018555 
z"/>
<path fill="#CBB897" opacity="1.000000" stroke="none" 
	d="
M463.292786,330.016022 
	C463.186218,329.753601 463.345490,329.422241 463.795471,329.059143 
	C463.910339,329.333923 463.734467,329.640472 463.292786,330.016022 
z"/>
<path fill="#CBB897" opacity="1.000000" stroke="none" 
	d="
M462.298828,331.014587 
	C462.185974,330.745667 462.338013,330.409119 462.787964,330.051453 
	C462.911804,330.335876 462.737732,330.641418 462.298828,331.014587 
z"/>
<path fill="#BEBEC6" opacity="1.000000" stroke="none" 
	d="
M417.066833,160.884979 
	C421.857788,161.279510 426.681244,161.451019 431.428986,162.142349 
	C434.937408,162.653244 438.270142,163.937637 439.042633,168.991425 
	C438.383392,177.548767 437.730621,185.278198 437.023865,193.401093 
	C436.965027,194.853180 436.960175,195.911789 436.695190,197.279694 
	C435.298523,209.391846 434.161987,221.194687 432.977356,233.390915 
	C432.923981,234.840546 432.918701,235.896820 432.661560,237.260574 
	C430.296570,256.818756 428.120331,276.062805 426.086578,295.321899 
	C423.705109,317.873810 421.447693,340.438812 419.090637,363.331757 
	C419.043945,364.114014 419.043091,364.562622 418.992981,365.431091 
	C417.690063,377.566772 416.436401,389.282623 415.117859,401.409546 
	C415.030975,403.207581 415.009003,404.594543 414.830719,406.359894 
	C413.468689,417.058136 412.217926,427.372955 411.067810,437.698975 
	C409.368469,452.956024 407.745850,468.221619 406.079315,483.482330 
	C405.574188,488.107849 402.817200,490.210052 398.325226,490.031311 
	C393.878540,489.854370 389.440125,489.470001 384.601074,489.111115 
	C383.133179,489.042969 382.062286,489.040314 380.597260,488.951416 
	C366.112701,487.250244 352.026855,485.594238 337.930481,484.032990 
	C325.960419,482.707306 313.986511,481.403717 301.997986,480.261719 
	C295.682220,479.660095 289.331482,479.425018 282.672058,479.016357 
	C281.914795,478.999786 281.482056,478.991302 280.777039,478.682434 
	C278.014221,478.282898 275.523712,478.183746 272.640472,478.046875 
	C271.195770,477.996948 270.143799,477.984802 268.972900,477.754730 
	C268.651093,477.240540 268.370148,477.088104 267.638123,477.041626 
	C266.515411,476.997986 265.765808,476.992249 264.593140,476.957397 
	C260.442383,476.220276 256.714630,475.512360 252.986893,474.804413 
	C257.350281,474.560608 261.713684,474.316772 266.845825,474.358856 
	C278.997467,475.420685 290.372742,476.344971 301.765411,476.929688 
	C312.525970,477.481964 323.306580,477.631317 334.074982,478.046021 
	C341.189667,478.320007 348.298462,478.747192 355.409668,479.110107 
	C367.807007,479.742859 380.200012,480.489349 392.603638,480.953918 
	C396.968628,481.117432 399.876068,477.883636 399.977295,473.406311 
	C400.048645,470.249695 399.942291,467.089050 399.915253,463.930206 
	C400.039398,456.601074 400.163544,449.271942 400.617126,441.394257 
	C401.623627,434.514069 402.547882,428.197327 402.931061,421.847961 
	C404.059448,403.150543 404.988251,384.441010 405.966095,365.734650 
	C406.658569,352.488251 407.296112,339.238953 407.972229,325.991669 
	C408.969543,306.452332 409.947662,286.911926 410.993225,267.375153 
	C411.940857,249.668015 413.086639,231.970764 413.926361,214.258774 
	C414.767242,196.521530 415.337372,178.771423 416.287720,161.001770 
	C416.721832,160.946030 416.894318,160.915512 417.066833,160.884979 
z"/>
<path fill="#DCDDE5" opacity="1.000000" stroke="none" 
	d="
M416.026154,161.026962 
	C415.337372,178.771423 414.767242,196.521530 413.926361,214.258774 
	C413.086639,231.970764 411.940857,249.668015 410.993225,267.375153 
	C409.947662,286.911926 408.969543,306.452332 407.972229,325.991669 
	C407.296112,339.238953 406.658569,352.488251 405.966095,365.734650 
	C404.988251,384.441010 404.059448,403.150543 402.931061,421.847961 
	C402.547882,428.197327 401.623627,434.514069 400.580994,440.991211 
	C399.469086,427.572021 398.710358,414.008057 397.979492,400.442566 
	C396.963745,381.589966 395.997742,362.734619 394.956726,343.883423 
	C393.998047,326.523163 392.945557,309.168121 391.976166,291.808441 
	C390.951294,273.455963 389.948120,255.102203 388.987579,236.746262 
	C388.260376,222.848541 387.715393,208.940704 386.905731,195.048050 
	C386.049011,180.347504 384.975128,165.659622 384.000671,150.532043 
	C384.005249,150.097870 384.482300,150.056229 384.721008,150.044586 
	C385.689209,150.077118 386.418701,150.121307 387.624573,150.518890 
	C389.733673,150.927551 391.366425,150.982819 392.999176,151.038086 
	C397.667267,151.052490 402.335358,151.066895 407.553162,151.434357 
	C410.381775,152.873795 412.660614,153.960144 414.939484,155.046494 
	C414.939484,155.046494 414.993896,155.504959 414.998291,156.112518 
	C415.343811,158.155701 415.684998,159.591339 416.026154,161.026962 
z"/>
<path fill="#B1B1BA" opacity="1.000000" stroke="none" 
	d="
M243.212067,267.109436 
	C271.390076,265.695801 299.094238,264.321045 326.793365,262.852722 
	C335.240540,262.404938 343.668945,261.476440 352.117676,261.284027 
	C354.003662,261.241058 357.338409,263.138580 357.569397,264.543365 
	C358.100769,267.774750 355.221222,268.775269 352.260345,268.916992 
	C337.824432,269.607788 323.388092,270.293793 308.955566,271.051270 
	C277.112579,272.722565 245.270111,274.406006 213.431107,276.151550 
	C204.812973,276.623962 196.212906,277.586487 187.593399,277.755615 
	C185.528091,277.796143 181.837875,275.780365 181.638809,274.332947 
	C181.135147,270.670929 184.494705,270.276672 187.509918,270.118347 
	C205.920547,269.151703 224.327850,268.121399 243.212067,267.109436 
z"/>
<path fill="#B1B1BA" opacity="1.000000" stroke="none" 
	d="
M184.975403,335.148712 
	C187.283051,333.551086 189.522079,331.480652 191.881088,331.333496 
	C208.304153,330.308990 224.759689,329.818970 241.190308,328.898682 
	C267.227722,327.440247 293.251282,325.735535 319.285828,324.223389 
	C331.729736,323.500580 344.182312,322.869598 356.640015,322.520020 
	C358.071228,322.479858 359.560883,324.522156 361.023438,325.598877 
	C359.571106,327.056305 358.265381,329.554382 356.639984,329.783356 
	C350.901337,330.591766 345.054535,330.649200 339.246307,330.943939 
	C317.827820,332.030762 296.404175,333.022461 274.990265,334.192383 
	C246.951141,335.724274 218.919998,337.402130 190.883469,338.982391 
	C188.244049,339.131165 185.263260,339.595978 184.975403,335.148712 
z"/>
<path fill="#B1B1B9" opacity="1.000000" stroke="none" 
	d="
M348.538849,353.671448 
	C352.141388,353.392944 355.354492,352.780762 358.416565,353.220398 
	C360.057831,353.455963 361.439270,355.501312 362.937927,356.729980 
	C361.631348,357.965240 360.506989,359.576141 358.964233,360.324432 
	C357.570892,361.000244 355.722931,360.789368 354.070526,360.872925 
	C325.862732,362.299774 297.652374,363.675903 269.446533,365.139740 
	C251.529968,366.069611 233.618042,367.092834 215.707809,368.138855 
	C207.756943,368.603241 199.820068,369.442932 191.866104,369.614044 
	C190.078629,369.652466 187.060394,367.916016 186.682190,366.458618 
	C185.900574,363.446777 188.511337,362.252686 191.314362,362.107483 
	C205.418076,361.376923 219.526077,360.723816 233.626022,359.927185 
	C260.817139,358.390778 288.001251,356.730194 315.193604,355.216766 
	C326.150696,354.606934 337.121826,354.248352 348.538849,353.671448 
z"/>
<path fill="#B1B1BA" opacity="1.000000" stroke="none" 
	d="
M307.971222,301.954895 
	C279.137268,303.584930 250.791260,305.231873 222.442047,306.821991 
	C210.835800,307.472992 199.225922,308.136749 187.608597,308.416443 
	C186.131638,308.451965 184.599304,306.187134 183.092636,304.988068 
	C184.682983,303.671448 186.173218,301.375458 187.880310,301.200928 
	C197.285324,300.239594 206.737350,299.679352 216.184296,299.198822 
	C239.247635,298.025848 262.321564,297.058502 285.382660,295.845490 
	C307.765106,294.668152 330.136566,293.283051 352.513977,292.008942 
	C353.837921,291.933563 355.366852,291.634705 356.447601,292.162384 
	C357.575226,292.712952 359.027618,294.177734 358.975891,295.171967 
	C358.908417,296.468750 357.771149,298.267975 356.606354,298.817993 
	C354.884308,299.631165 352.741638,299.695129 350.763214,299.801117 
	C336.663544,300.556488 322.560089,301.241486 307.971222,301.954895 
z"/>
<path fill="#B1B1B9" opacity="1.000000" stroke="none" 
	d="
M269.195618,197.049011 
	C292.720520,195.742859 315.770111,194.429581 338.823151,193.180069 
	C342.810699,192.963928 346.839783,192.738602 350.791901,193.118484 
	C351.967865,193.231537 353.600189,195.299240 353.794739,196.648514 
	C353.932831,197.605728 352.165100,199.583694 350.973206,199.843063 
	C347.754517,200.543457 344.394409,200.678940 341.080719,200.844330 
	C318.675659,201.962646 296.264862,202.968521 273.862183,204.131546 
	C249.310287,205.406143 224.765045,206.809311 200.217087,208.159607 
	C194.411896,208.478943 188.608475,208.831924 182.802094,209.127136 
	C180.307297,209.253952 177.945908,208.993820 177.915741,205.673676 
	C177.886490,202.453217 180.122086,202.075211 182.670288,201.944672 
	C202.245163,200.941879 221.819504,199.925766 241.389862,198.839020 
	C250.505157,198.332840 259.611237,197.660492 269.195618,197.049011 
z"/>
<path fill="#DCDDE5" opacity="1.000000" stroke="none" 
	d="
M399.552521,464.001160 
	C399.942291,467.089050 400.048645,470.249695 399.977295,473.406311 
	C399.876068,477.883636 396.968628,481.117432 392.603638,480.953918 
	C380.200012,480.489349 367.807007,479.742859 355.409668,479.110107 
	C348.298462,478.747192 341.189667,478.320007 334.074982,478.046021 
	C323.306580,477.631317 312.525970,477.481964 301.765411,476.929688 
	C290.372742,476.344971 278.997467,475.420685 267.308350,474.371094 
	C268.048004,473.741547 269.081360,473.119568 270.141632,473.069672 
	C285.880524,472.328644 301.626465,471.734100 317.363739,470.962006 
	C336.233276,470.036255 355.096680,468.984100 373.961578,467.965149 
	C379.419128,467.670380 384.906799,467.564667 390.314758,466.863922 
	C393.342865,466.471527 396.235901,465.037018 399.552521,464.001160 
z"/>
<path fill="#B6CBF5" opacity="1.000000" stroke="none" 
	d="
M368.719910,402.678528 
	C370.153656,417.201691 364.729248,427.653412 352.704468,435.369354 
	C342.946899,441.630554 324.224457,439.619843 315.137421,429.813843 
	C299.818787,413.283234 304.866455,386.850372 325.891541,378.797272 
	C343.180664,372.175171 363.908783,380.248779 368.719910,402.678528 
M361.587158,418.868225 
	C367.553436,404.768799 362.116943,389.248596 348.424225,383.897552 
	C333.980591,378.253082 320.487915,382.558136 313.424530,397.468994 
	C307.335388,410.323151 312.998444,424.870941 325.599701,431.270966 
	C338.884369,438.018066 354.199127,432.920105 361.587158,418.868225 
z"/>
<path fill="#668AA9" opacity="1.000000" stroke="none" 
	d="
M236.636841,416.618073 
	C238.329208,415.298309 240.008530,413.961334 241.717102,412.662842 
	C244.154205,410.810608 246.507477,409.779266 248.015244,413.952209 
	C250.043274,412.419830 251.672501,411.037537 253.446411,409.876312 
	C259.120850,406.161621 261.428558,406.609924 266.927826,410.400208 
	C268.966034,411.805023 272.179077,411.505249 274.815979,411.975677 
	C273.661591,415.660828 269.892670,416.950775 266.277069,414.563538 
	C258.817535,409.638275 258.640747,409.649292 251.521652,415.521423 
	C250.751755,416.156494 249.992538,416.804504 249.221497,417.438171 
	C246.502243,419.673096 244.259399,420.234802 243.326431,413.854462 
	C241.011246,416.809601 239.719055,419.033722 237.881821,420.630920 
	C236.274200,422.028503 234.053940,422.721344 232.104340,423.725525 
	C231.554108,421.764313 231.003906,419.803131 230.330933,417.404388 
	C227.639816,421.360138 224.873184,425.426849 222.106537,429.493591 
	C221.357559,429.189667 220.608582,428.885712 219.859604,428.581787 
	C220.391006,424.988403 220.888153,421.389557 221.464508,417.803375 
	C221.938171,414.856232 222.693878,411.942017 222.973831,408.980042 
	C223.208206,406.500305 221.700470,405.437225 219.526337,406.740234 
	C216.128510,408.776672 213.183243,410.791626 213.453247,415.929565 
	C213.762085,421.806366 212.774643,427.801208 211.823456,433.659180 
	C211.585999,435.121582 209.324768,436.255402 207.993698,437.540222 
	C206.980530,436.132629 205.064514,434.692017 205.114639,433.323364 
	C205.304657,428.134979 205.989014,422.947449 206.799438,417.808655 
	C207.073120,416.073273 208.998337,414.431000 208.883713,412.838654 
	C208.682739,410.046478 207.489899,407.325714 206.712524,404.575012 
	C204.798325,405.814697 202.326797,406.653748 201.087097,408.378296 
	C198.583588,411.860840 196.801620,415.855316 194.611359,419.573425 
	C193.808456,420.936462 192.692108,422.114807 191.718719,423.377411 
	C191.317764,423.177063 190.916794,422.976715 190.515823,422.776398 
	C190.623367,421.759277 190.443283,420.590485 190.886383,419.750366 
	C193.285919,415.200714 195.435745,410.440643 198.427338,406.298950 
	C204.026993,398.546448 208.066818,399.035004 211.767838,406.220673 
	C216.066544,405.252106 220.001373,404.365509 223.936203,403.478912 
	C224.827164,408.045105 225.718124,412.611267 226.488327,416.558563 
	C227.057419,415.789917 228.175354,413.687195 229.842560,412.200439 
	C231.406082,410.806152 233.550735,410.063507 235.439651,409.034119 
	C235.566376,411.039886 235.693100,413.045685 235.588287,415.648560 
	C235.411224,416.780151 235.465698,417.314606 235.520172,417.849060 
	C235.892395,417.438751 236.264618,417.028412 236.636841,416.618073 
M209.575195,431.434265 
	C210.026627,427.498260 210.478058,423.562286 210.929489,419.626282 
	C210.388626,419.544434 209.847778,419.462616 209.306931,419.380768 
	C208.592270,422.328308 207.606659,425.247681 207.295532,428.237213 
	C207.170044,429.443024 208.520752,430.802429 209.575195,431.434265 
z"/>
<path fill="#B1B1BA" opacity="1.000000" stroke="none" 
	d="
M287.733215,230.891083 
	C266.879852,231.927658 246.499832,232.959488 226.119110,233.977249 
	C224.958801,234.035187 223.579010,234.370895 222.679962,233.881638 
	C221.365021,233.166061 219.602249,231.889954 219.499695,230.723557 
	C219.399460,229.583557 220.898560,227.805038 222.137711,227.171371 
	C223.682449,226.381485 225.671417,226.306061 227.483078,226.216660 
	C243.563599,225.423187 259.649750,224.742432 275.729279,223.931122 
	C286.994415,223.362732 298.250885,222.624069 309.513550,222.003937 
	C312.050537,221.864258 314.822815,221.687302 315.050812,225.312363 
	C315.276886,228.907288 312.649994,229.075897 310.020538,229.258011 
	C302.746521,229.761765 295.477448,230.336533 287.733215,230.891083 
z"/>
<path fill="#B19962" opacity="1.000000" stroke="none" 
	d="
M265.016174,476.986542 
	C265.765808,476.992249 266.515411,476.997986 267.759521,477.251953 
	C268.476715,477.757874 268.755981,477.915375 269.091827,477.972656 
	C270.143799,477.984802 271.195770,477.996948 272.924133,478.318695 
	C276.083466,478.746460 278.566406,478.864655 281.049316,478.982849 
	C281.482056,478.991302 281.914795,478.999786 282.829102,479.256104 
	C283.874847,480.001648 284.439026,480.499329 284.796692,481.259827 
	C283.725067,481.683960 282.859894,481.845245 281.554993,482.005615 
	C269.765594,481.671265 258.409973,480.944244 247.068039,481.116638 
	C236.000992,481.284790 224.945694,482.340637 213.894257,483.132721 
	C213.226242,483.180573 212.637863,484.339844 212.012421,484.981934 
	C204.846039,484.188354 197.679672,483.394775 190.389709,482.026367 
	C191.837479,480.336365 193.408829,479.221161 194.980179,478.105957 
	C196.682037,478.046326 198.383881,477.986725 200.747040,478.180786 
	C206.795517,478.289246 212.195892,478.329834 217.566284,477.948517 
	C223.382538,477.535553 229.170883,476.729126 234.971390,476.094299 
	C235.710999,476.038818 236.450592,475.983307 237.838898,476.208313 
	C246.453171,476.989990 254.416916,477.526550 262.386993,477.941162 
	C263.244537,477.985748 264.138885,477.321808 265.016174,476.986542 
z"/>
<path fill="#BEBEC6" opacity="1.000000" stroke="none" 
	d="
M234.523590,143.772827 
	C233.096802,143.202972 232.093048,142.153702 231.039291,142.100800 
	C221.692688,141.631653 212.337234,141.338974 202.533218,140.994385 
	C203.813370,140.317963 205.590912,138.961105 207.268494,139.075119 
	C218.164810,139.815796 229.038788,140.883194 239.921478,141.827286 
	C242.726135,142.070587 245.535858,142.255432 248.614227,142.758728 
	C244.231262,143.285355 239.577362,143.520416 234.523590,143.772827 
z"/>
<path fill="#A9966A" opacity="1.000000" stroke="none" 
	d="
M194.520706,478.034119 
	C193.408829,479.221161 191.837479,480.336365 190.108856,481.755066 
	C186.689072,481.691254 183.430161,481.087097 180.162781,481.037140 
	C177.855881,481.001862 175.537491,481.718079 173.153229,482.475861 
	C170.339127,482.562408 167.596054,482.271881 164.441254,481.983490 
	C165.746628,481.644653 167.472214,481.336761 169.164902,480.901001 
	C169.302643,480.865570 169.215515,479.956512 169.119919,479.177795 
	C177.358383,478.588898 185.709808,478.275604 194.520706,478.034119 
z"/>
<path fill="#A9966A" opacity="1.000000" stroke="none" 
	d="
M264.593140,476.957397 
	C264.138885,477.321808 263.244537,477.985748 262.386993,477.941162 
	C254.416916,477.526550 246.453171,476.989990 238.207657,476.164185 
	C242.638458,475.475372 247.349213,475.111176 252.523422,474.775696 
	C256.714630,475.512360 260.442383,476.220276 264.593140,476.957397 
z"/>
<path fill="#A9966A" opacity="1.000000" stroke="none" 
	d="
M234.509888,476.030029 
	C229.170883,476.729126 223.382538,477.535553 217.566284,477.948517 
	C212.195892,478.329834 206.795517,478.289246 201.171432,478.147095 
	C201.648514,477.557678 202.353668,477.016296 203.077850,476.989471 
	C213.399841,476.607422 223.724411,476.295044 234.509888,476.030029 
z"/>
<path fill="#CBB897" opacity="1.000000" stroke="none" 
	d="
M158.142365,446.726349 
	C158.418472,447.224579 158.671722,447.991425 158.924988,448.758270 
	C158.737457,448.791870 158.549942,448.825439 158.362411,448.859039 
	C158.281448,448.237671 158.200485,447.616333 158.142365,446.726349 
z"/>
<path fill="#EADFBC" opacity="1.000000" stroke="none" 
	d="
M305.164368,140.328278 
	C305.568237,139.941498 306.134827,139.748764 306.846802,139.790771 
	C306.437195,140.191116 305.882141,140.356720 305.164368,140.328278 
z"/>
<path fill="#B19962" opacity="1.000000" stroke="none" 
	d="
M414.987030,405.981476 
	C415.009003,404.594543 415.030975,403.207581 415.481323,401.311066 
	C416.268341,400.112122 416.855103,399.452423 416.949341,398.728638 
	C417.672821,393.172546 418.549561,387.619049 418.888550,382.035034 
	C419.231903,376.378174 419.014191,370.687256 419.042236,365.011261 
	C419.043091,364.562622 419.043945,364.114014 419.428101,363.263550 
	C420.436066,361.750427 421.435455,360.698273 421.621918,359.517731 
	C422.533722,353.745636 423.406738,347.955780 423.944336,342.139923 
	C424.374908,337.481873 424.056152,332.753632 424.503296,328.098206 
	C425.891754,313.642517 427.500854,299.208160 428.996887,284.762665 
	C430.152710,273.602234 431.357300,262.445587 432.357697,251.270920 
	C432.783051,246.519806 432.742310,241.726959 432.913391,236.953079 
	C432.918701,235.896820 432.923981,234.840546 433.257324,233.143127 
	C434.063934,230.429855 434.666107,228.377151 434.995331,226.281570 
	C435.678955,221.930328 436.481598,217.572418 436.748779,213.187607 
	C437.077118,207.797684 436.908905,202.377502 436.955322,196.970398 
	C436.960175,195.911789 436.965027,194.853180 437.393127,193.315460 
	C438.544434,188.930893 439.128937,184.990616 440.062592,181.134918 
	C440.515594,179.264084 441.622589,177.551605 442.433533,175.767441 
	C443.609802,177.592209 444.786041,179.416962 446.014404,181.577896 
	C445.383240,182.999527 444.247772,184.023041 444.089233,185.180389 
	C442.949982,193.496918 442.034515,201.843796 440.998169,210.174820 
	C439.898071,219.018570 438.665466,227.846436 437.634338,236.697968 
	C436.659576,245.065582 435.739380,253.443787 435.031311,261.837250 
	C433.918671,275.026825 434.495850,288.581848 431.518005,301.318237 
	C429.272095,310.924255 429.624908,320.235321 428.911530,329.698273 
	C428.630066,333.431519 427.174744,337.061401 426.630249,340.793274 
	C425.903381,345.775146 425.440430,350.802765 425.061615,355.825653 
	C424.810822,359.150696 425.176422,362.532654 424.799408,365.835876 
	C423.314453,378.846069 421.465607,391.816315 420.096344,404.837646 
	C418.833618,416.845642 418.093353,428.907837 416.942322,440.928833 
	C416.634644,444.142609 415.377075,447.267761 415.095490,450.480927 
	C414.883484,452.899963 415.882111,455.418427 415.715637,457.849731 
	C415.486389,461.196899 414.659668,464.502472 414.102173,467.828064 
	C413.723083,470.089600 413.343109,472.351410 413.004883,474.619293 
	C412.303986,479.319366 411.813538,484.062500 410.825317,488.700287 
	C410.557556,489.956879 408.819031,490.900085 407.430328,491.583038 
	C407.400909,489.891235 407.809723,488.617859 407.975037,487.313629 
	C409.510498,475.198456 411.003265,463.077850 412.511658,450.959229 
	C412.592468,450.309753 412.748047,449.666992 412.791840,449.015900 
	C413.430786,439.508514 414.126953,430.004181 414.656189,420.490570 
	C414.924713,415.663025 414.886566,410.818390 414.987030,405.981476 
z"/>
<path fill="#C1A669" opacity="1.000000" stroke="none" 
	d="
M212.428970,485.000671 
	C212.637863,484.339844 213.226242,483.180573 213.894257,483.132721 
	C224.945694,482.340637 236.000992,481.284790 247.068039,481.116638 
	C258.409973,480.944244 269.765594,481.671265 281.631714,482.379089 
	C284.751282,483.501862 287.312988,484.630005 289.966064,484.918915 
	C295.386902,485.509277 300.891327,485.373749 306.296509,486.053101 
	C311.325256,486.685181 316.228363,488.387726 321.260284,488.907654 
	C330.595764,489.872253 340.000000,490.156311 349.346832,491.031067 
	C357.030823,491.750122 364.655884,493.110992 372.342316,493.786224 
	C375.514099,494.064880 378.777985,493.294800 382.384277,493.007568 
	C384.509521,493.346008 386.250488,493.678528 387.991455,494.011017 
	C391.447113,497.723694 396.065552,495.682373 400.120148,496.411896 
	C401.686279,496.693726 403.388000,496.233948 404.949219,496.528809 
	C409.871887,497.458618 412.796234,495.321320 414.110901,490.225677 
	C414.590515,488.366699 416.173920,486.792480 417.614136,485.047974 
	C417.327118,489.730835 416.679779,494.454132 416.022095,499.585358 
	C412.445435,501.019958 409.474457,501.059998 405.741730,498.931488 
	C402.601440,497.140778 397.835907,498.165985 393.787323,498.008972 
	C382.873322,497.585724 372.027954,497.283691 361.277588,494.485596 
	C355.135162,492.886902 348.421997,493.578888 341.991760,492.966827 
	C330.966675,491.917450 319.961731,490.656311 308.948944,489.478363 
	C307.633911,489.337708 306.323303,489.156158 305.009583,489.002625 
	C293.886566,487.702576 282.764282,486.395905 271.638580,485.119141 
	C270.484802,484.986755 269.310211,485.007629 268.145233,485.006073 
	C261.565643,484.997162 254.979492,484.820404 248.408340,485.056396 
	C242.093369,485.283203 235.793915,485.942535 229.272034,486.673279 
	C223.652786,486.296295 218.249161,485.657867 212.428970,485.000671 
z"/>
<path fill="#C4A96A" opacity="1.000000" stroke="none" 
	d="
M435.941284,327.131531 
	C435.523895,327.123566 435.106537,327.115601 434.378326,327.134430 
	C433.822906,325.247284 433.255341,323.309113 433.396576,321.424072 
	C433.764923,316.506958 434.512604,311.619690 434.984985,306.708588 
	C436.104553,295.068298 437.084259,283.414307 438.247101,271.778473 
	C439.534607,258.894684 441.093658,246.037125 442.291382,233.145538 
	C443.371643,221.517838 443.974976,209.845276 445.098480,198.222427 
	C445.507812,193.987961 446.810852,189.839874 447.850403,185.329254 
	C449.981964,188.762802 451.969269,192.519470 453.585724,196.636536 
	C449.574615,196.652695 448.932434,197.841217 449.509277,201.636246 
	C450.324982,207.002777 450.366486,212.646378 449.712097,218.047104 
	C447.747345,234.262573 444.360168,250.354584 443.249969,266.612335 
	C441.861053,286.951294 439.626434,307.108215 435.941284,327.131531 
z"/>
<path fill="#A9966A" opacity="1.000000" stroke="none" 
	d="
M414.830719,406.359894 
	C414.886566,410.818390 414.924713,415.663025 414.656189,420.490570 
	C414.126953,430.004181 413.430786,439.508514 412.791840,449.015900 
	C412.748047,449.666992 412.592468,450.309753 412.511658,450.959229 
	C411.003265,463.077850 409.510498,475.198456 407.975037,487.313629 
	C407.809723,488.617859 407.400909,489.891235 407.054016,491.592194 
	C405.271790,492.335907 403.540588,492.666382 401.198334,492.734070 
	C399.722229,492.317444 398.857208,492.163605 397.992157,492.009735 
	C395.624908,492.007904 393.257690,492.006073 390.083710,491.998108 
	C387.850677,491.053497 386.424377,490.115051 384.998077,489.176605 
	C389.440125,489.470001 393.878540,489.854370 398.325226,490.031311 
	C402.817200,490.210052 405.574188,488.107849 406.079315,483.482330 
	C407.745850,468.221619 409.368469,452.956024 411.067810,437.698975 
	C412.217926,427.372955 413.468689,417.058136 414.830719,406.359894 
z"/>
<path fill="#B19962" opacity="1.000000" stroke="none" 
	d="
M384.601074,489.111115 
	C386.424377,490.115051 387.850677,491.053497 389.640137,491.998413 
	C389.546875,492.643646 389.090424,493.282379 388.312714,493.966064 
	C386.250488,493.678528 384.509521,493.346008 382.146820,492.735596 
	C380.013519,491.641693 378.501984,490.825745 377.355255,490.007141 
	C378.810516,489.682251 379.900940,489.359955 380.991394,489.037659 
	C382.062286,489.040314 383.133179,489.042969 384.601074,489.111115 
z"/>
<path fill="#C1A669" opacity="1.000000" stroke="none" 
	d="
M418.029480,480.718994 
	C418.038635,481.502289 418.032562,481.932190 418.018127,482.685242 
	C417.568390,481.429260 417.127014,479.850098 416.685638,478.270935 
	C416.994141,478.194824 417.302643,478.118713 417.611176,478.042603 
	C417.745544,478.816925 417.879913,479.591278 418.029480,480.718994 
z"/>
<path fill="#B19962" opacity="1.000000" stroke="none" 
	d="
M398.039551,492.333191 
	C398.857208,492.163605 399.722229,492.317444 400.794250,492.733032 
	C400.029785,492.882080 399.058350,492.769348 398.039551,492.333191 
z"/>
<path fill="#E0C17B" opacity="1.000000" stroke="none" 
	d="
M453.074402,328.907898 
	C451.433899,329.106659 450.120850,329.060699 448.405823,328.518311 
	C449.636902,312.846710 451.446777,297.687927 452.854431,282.491882 
	C454.330658,266.555206 455.748932,250.599045 456.542175,234.619125 
	C456.940033,226.604065 458.215851,219.063828 462.004883,211.993530 
	C463.673309,215.410538 465.341705,218.827530 467.028564,222.614655 
	C466.031342,225.445465 464.371490,227.838303 464.104004,230.377792 
	C462.287903,247.617676 460.738312,264.885986 459.159912,282.150391 
	C458.377258,290.710754 457.951263,299.310486 456.926605,307.839874 
	C456.087860,314.821350 454.601196,321.724976 453.074402,328.907898 
z"/>
<path fill="#D5B775" opacity="1.000000" stroke="none" 
	d="
M461.869232,211.672638 
	C458.215851,219.063828 456.940033,226.604065 456.542175,234.619125 
	C455.748932,250.599045 454.330658,266.555206 452.854431,282.491882 
	C451.446777,297.687927 449.636902,312.846710 448.008942,328.477234 
	C445.937256,328.643707 443.860474,328.354797 441.399414,327.622070 
	C441.677124,322.115387 442.491119,317.066650 442.961334,311.986084 
	C443.509552,306.062500 443.486389,300.078705 444.192291,294.178619 
	C445.616669,282.273651 447.753723,270.444519 448.890991,258.516785 
	C450.582977,240.771103 451.598633,222.961563 453.122284,205.198090 
	C453.249207,203.718475 455.047821,202.382248 456.069763,200.979401 
	C457.957672,204.436829 459.845642,207.894287 461.869232,211.672638 
z"/>
<path fill="#CCAF70" opacity="1.000000" stroke="none" 
	d="
M455.931213,200.680038 
	C455.047821,202.382248 453.249207,203.718475 453.122284,205.198090 
	C451.598633,222.961563 450.582977,240.771103 448.890991,258.516785 
	C447.753723,270.444519 445.616669,282.273651 444.192291,294.178619 
	C443.486389,300.078705 443.509552,306.062500 442.961334,311.986084 
	C442.491119,317.066650 441.677124,322.115387 441.006958,327.590759 
	C439.499603,327.873962 438.000397,327.744598 436.221252,327.373352 
	C439.626434,307.108215 441.861053,286.951294 443.249969,266.612335 
	C444.360168,250.354584 447.747345,234.262573 449.712097,218.047104 
	C450.366486,212.646378 450.324982,207.002777 449.509277,201.636246 
	C448.932434,197.841217 449.574615,196.652695 453.641418,196.994598 
	C454.642853,198.121735 455.217743,199.251205 455.931213,200.680038 
z"/>
<path fill="#A9966A" opacity="1.000000" stroke="none" 
	d="
M442.248413,175.459488 
	C441.622589,177.551605 440.515594,179.264084 440.062592,181.134918 
	C439.128937,184.990616 438.544434,188.930893 437.447083,192.921997 
	C437.730621,185.278198 438.383392,177.548767 439.056335,169.359070 
	C440.072113,170.983017 441.067688,173.067276 442.248413,175.459488 
z"/>
<path fill="#EADFBC" opacity="1.000000" stroke="none" 
	d="
M414.922058,154.679596 
	C412.660614,153.960144 410.381775,152.873795 408.014221,151.451813 
	C410.251892,152.181702 412.578247,153.247208 414.922058,154.679596 
z"/>
<path fill="#EADFBC" opacity="1.000000" stroke="none" 
	d="
M392.748657,150.749863 
	C391.366425,150.982819 389.733673,150.927551 387.988037,150.549896 
	C389.416168,150.305557 390.957153,150.383606 392.748657,150.749863 
z"/>
<path fill="#EADFBC" opacity="1.000000" stroke="none" 
	d="
M416.287720,161.001770 
	C415.684998,159.591339 415.343811,158.155701 415.020874,156.342255 
	C415.704895,157.350357 416.370667,158.736252 417.051636,160.503571 
	C416.894318,160.915512 416.721832,160.946030 416.287720,161.001770 
z"/>
<path fill="#A9966A" opacity="1.000000" stroke="none" 
	d="
M432.661560,237.260574 
	C432.742310,241.726959 432.783051,246.519806 432.357697,251.270920 
	C431.357300,262.445587 430.152710,273.602234 428.996887,284.762665 
	C427.500854,299.208160 425.891754,313.642517 424.503296,328.098206 
	C424.056152,332.753632 424.374908,337.481873 423.944336,342.139923 
	C423.406738,347.955780 422.533722,353.745636 421.621918,359.517731 
	C421.435455,360.698273 420.436066,361.750427 419.473907,362.929932 
	C421.447693,340.438812 423.705109,317.873810 426.086578,295.321899 
	C428.120331,276.062805 430.296570,256.818756 432.661560,237.260574 
z"/>
<path fill="#A9966A" opacity="1.000000" stroke="none" 
	d="
M380.597260,488.951416 
	C379.900940,489.359955 378.810516,489.682251 376.934967,490.004395 
	C372.411316,489.816620 368.648682,489.832092 364.940125,489.391937 
	C359.878540,488.791260 354.884003,487.552826 349.814972,487.102722 
	C337.778992,486.033905 325.707214,485.371613 313.667633,484.338470 
	C307.093292,483.774353 300.555054,482.789551 293.729858,481.709412 
	C291.304535,481.282898 289.149811,481.141449 286.663116,481.000031 
	C285.888489,480.999023 285.445831,480.998016 285.003204,480.997009 
	C284.439026,480.499329 283.874847,480.001648 283.153625,479.264221 
	C289.331482,479.425018 295.682220,479.660095 301.997986,480.261719 
	C313.986511,481.403717 325.960419,482.707306 337.930481,484.032990 
	C352.026855,485.594238 366.112701,487.250244 380.597260,488.951416 
z"/>
<path fill="#A9966A" opacity="1.000000" stroke="none" 
	d="
M436.695190,197.279694 
	C436.908905,202.377502 437.077118,207.797684 436.748779,213.187607 
	C436.481598,217.572418 435.678955,221.930328 434.995331,226.281570 
	C434.666107,228.377151 434.063934,230.429855 433.305420,232.749756 
	C434.161987,221.194687 435.298523,209.391846 436.695190,197.279694 
z"/>
<path fill="#A9966A" opacity="1.000000" stroke="none" 
	d="
M418.992981,365.431091 
	C419.014191,370.687256 419.231903,376.378174 418.888550,382.035034 
	C418.549561,387.619049 417.672821,393.172546 416.949341,398.728638 
	C416.855103,399.452423 416.268341,400.112122 415.546234,400.899963 
	C416.436401,389.282623 417.690063,377.566772 418.992981,365.431091 
z"/>
<path fill="#A9966A" opacity="1.000000" stroke="none" 
	d="
M280.777039,478.682434 
	C278.566406,478.864655 276.083466,478.746460 273.316895,478.356445 
	C275.523712,478.183746 278.014221,478.282898 280.777039,478.682434 
z"/>
<path fill="#A9966A" opacity="1.000000" stroke="none" 
	d="
M268.972900,477.754761 
	C268.755981,477.915375 268.476715,477.757874 268.132629,477.289856 
	C268.370148,477.088104 268.651093,477.240540 268.972900,477.754761 
z"/>
<path fill="#F3F9FE" opacity="1.000000" stroke="none" 
	d="
M361.409546,419.207092 
	C354.199127,432.920105 338.884369,438.018066 325.599701,431.270966 
	C312.998444,424.870941 307.335388,410.323151 313.424530,397.468994 
	C320.487915,382.558136 333.980591,378.253082 348.424225,383.897552 
	C362.116943,389.248596 367.553436,404.768799 361.409546,419.207092 
M326.156738,427.564728 
	C330.331726,428.403717 334.474457,429.497986 338.688171,430.030823 
	C348.828766,431.313110 358.693787,421.073761 359.973389,412.590790 
	C362.255951,397.458801 352.571869,388.385803 344.060333,386.020844 
	C332.842773,382.903931 321.298462,388.378113 316.702576,398.713379 
	C312.259125,408.705841 315.881531,420.442078 326.156738,427.564728 
z"/>
<path fill="#DCDDE5" opacity="1.000000" stroke="none" 
	d="
M209.387421,431.763123 
	C208.520752,430.802429 207.170044,429.443024 207.295532,428.237213 
	C207.606659,425.247681 208.592270,422.328308 209.306931,419.380768 
	C209.847778,419.462616 210.388626,419.544434 210.929489,419.626282 
	C210.478058,423.562286 210.026627,427.498260 209.387421,431.763123 
z"/>
<path fill="#FEFEFE" opacity="1.000000" stroke="none" 
	d="
M236.427032,416.403229 
	C236.264618,417.028412 235.892395,417.438751 235.520172,417.849060 
	C235.465698,417.314606 235.411224,416.780151 235.558945,416.021667 
	C235.913162,415.927887 236.065201,416.058136 236.427032,416.403229 
z"/>
<path fill="#B9A067" opacity="1.000000" stroke="none" 
	d="
M284.796692,481.259888 
	C285.445831,480.998016 285.888489,480.999023 286.741180,481.371918 
	C289.434326,481.827362 291.717438,481.910919 294.000519,481.994476 
	C300.555054,482.789551 307.093292,483.774353 313.667633,484.338470 
	C325.707214,485.371613 337.778992,486.033905 349.814972,487.102722 
	C354.884003,487.552826 359.878540,488.791260 364.940125,489.391937 
	C368.648682,489.832092 372.411316,489.816620 376.570129,490.007019 
	C378.501984,490.825745 380.013519,491.641693 381.762543,492.729675 
	C378.777985,493.294800 375.514099,494.064880 372.342316,493.786224 
	C364.655884,493.110992 357.030823,491.750122 349.346832,491.031067 
	C340.000000,490.156311 330.595764,489.872253 321.260284,488.907654 
	C316.228363,488.387726 311.325256,486.685181 306.296509,486.053101 
	C300.891327,485.373749 295.386902,485.509277 289.966064,484.918915 
	C287.312988,484.630005 284.751282,483.501862 282.071472,482.380035 
	C282.859894,481.845245 283.725067,481.683960 284.796692,481.259888 
z"/>
<path fill="#B19962" opacity="1.000000" stroke="none" 
	d="
M293.729858,481.709412 
	C291.717438,481.910919 289.434326,481.827362 287.073181,481.371918 
	C289.149811,481.141449 291.304535,481.282898 293.729858,481.709412 
z"/>
<path fill="#B6CBF5" opacity="1.000000" stroke="none" 
	d="
M325.826050,427.382935 
	C315.881531,420.442078 312.259125,408.705841 316.702576,398.713379 
	C321.298462,388.378113 332.842773,382.903931 344.060333,386.020844 
	C352.571869,388.385803 362.255951,397.458801 359.973389,412.590790 
	C358.693787,421.073761 348.828766,431.313110 338.688171,430.030823 
	C334.474457,429.497986 330.331726,428.403717 325.826050,427.382935 
M319.983398,406.709412 
	C320.011932,417.323914 324.895447,423.201599 335.454498,425.330078 
	C343.584198,426.968811 353.035950,420.859894 354.887360,412.770081 
	C357.046753,403.334564 351.838715,393.419220 343.469299,391.031738 
	C331.928772,387.739624 322.406250,393.751373 319.983398,406.709412 
z"/>
<path fill="#F8FCFE" opacity="1.000000" stroke="none" 
	d="
M319.987671,406.281433 
	C322.406250,393.751373 331.928772,387.739624 343.469299,391.031738 
	C351.838715,393.419220 357.046753,403.334564 354.887360,412.770081 
	C353.035950,420.859894 343.584198,426.968811 335.454498,425.330078 
	C324.895447,423.201599 320.011932,417.323914 319.987671,406.281433 
M348.829865,410.645477 
	C347.437469,410.107666 346.035950,409.092194 344.654297,409.118500 
	C339.848511,409.210052 335.030823,409.508270 330.261749,410.089783 
	C329.110748,410.230133 328.129425,411.762085 327.070068,412.654083 
	C328.248688,413.426758 329.435791,414.871521 330.604431,414.856720 
	C335.907104,414.789581 341.215271,414.415527 346.493317,413.876312 
	C347.364655,413.787292 348.095825,412.325897 348.829865,410.645477 
M346.964447,401.222229 
	C341.362732,401.457855 335.748962,401.555939 330.169403,402.044678 
	C329.048828,402.142822 328.058319,403.726013 327.007874,404.624512 
	C328.181549,405.390137 329.360107,406.814728 330.528015,406.806030 
	C335.310120,406.770325 340.085205,406.181671 344.870331,406.025940 
	C348.071838,405.921783 348.450531,404.329376 346.964447,401.222229 
z"/>
<path fill="#B6CBF5" opacity="1.000000" stroke="none" 
	d="
M348.860809,411.072113 
	C348.095825,412.325897 347.364655,413.787292 346.493317,413.876312 
	C341.215271,414.415527 335.907104,414.789581 330.604431,414.856720 
	C329.435791,414.871521 328.248688,413.426758 327.070068,412.654083 
	C328.129425,411.762085 329.110748,410.230133 330.261749,410.089783 
	C335.030823,409.508270 339.848511,409.210052 344.654297,409.118500 
	C346.035950,409.092194 347.437469,410.107666 348.860809,411.072113 
z"/>
<path fill="#B6CBF5" opacity="1.000000" stroke="none" 
	d="
M347.305176,401.503815 
	C348.450531,404.329376 348.071838,405.921783 344.870331,406.025940 
	C340.085205,406.181671 335.310120,406.770325 330.528015,406.806030 
	C329.360107,406.814728 328.181549,405.390137 327.007874,404.624512 
	C328.058319,403.726013 329.048828,402.142822 330.169403,402.044678 
	C335.748962,401.555939 341.362732,401.457855 347.305176,401.503815 
z"/>
</svg>