<?xml version="1.0" standalone="no"?>
<!DOCTYPE svg PUBLIC "-//W3C//DTD SVG 20010904//EN"
 "http://www.w3.org/TR/2001/REC-SVG-20010904/DTD/svg10.dtd">
<svg version="1.0" xmlns="http://www.w3.org/2000/svg"
 width="200.000000pt" height="200.000000pt" viewBox="0 0 200.000000 200.000000"
 preserveAspectRatio="xMidYMid meet">

<g transform="translate(0.000000,200.000000) scale(0.100000,-0.100000)"
fill="#000000" stroke="none">
<path d="M460 794 c0 -66 2 -75 18 -72 11 2 19 15 22 38 3 24 8 31 13 22 7
-10 12 -10 22 -2 11 9 14 5 17 -22 2 -22 9 -34 21 -36 15 -3 17 6 17 72 0 67
-2 76 -18 76 -10 0 -25 -12 -32 -26 l-14 -25 -19 25 c-34 48 -47 34 -47 -50z"/>
<path d="M624 857 c-3 -8 -4 -41 -2 -73 l3 -59 50 0 c39 0 50 4 53 18 3 13 -3
17 -27 17 -17 0 -31 5 -31 10 0 6 9 10 20 10 11 0 20 7 20 15 0 8 -9 15 -20
15 -11 0 -20 5 -20 10 0 6 14 10 31 10 24 0 30 4 27 18 -4 23 -95 31 -104 9z"/>
<path d="M755 858 c-4 -9 -5 -42 -3 -74 l3 -59 42 -3 c32 -2 47 2 62 17 24 24
28 78 8 105 -18 24 -104 35 -112 14z m75 -63 c0 -24 -5 -35 -15 -35 -10 0 -15
11 -15 35 0 24 5 35 15 35 10 0 15 -11 15 -35z"/>
<path d="M900 851 c0 -12 7 -21 15 -21 10 0 15 -11 15 -35 0 -24 -5 -35 -15
-35 -8 0 -15 -9 -15 -21 0 -18 5 -20 47 -17 36 2 49 7 51 21 2 10 -3 17 -12
17 -12 0 -16 10 -16 35 0 25 4 35 16 35 9 0 14 7 12 18 -2 13 -15 18 -51 20
-42 3 -47 1 -47 -17z"/>
<path d="M1024 856 c-3 -7 -4 -40 -2 -72 l3 -59 37 -3 c62 -5 78 10 78 74 0
49 -2 55 -26 64 -37 14 -84 12 -90 -4z m76 -61 c0 -24 -5 -35 -15 -35 -10 0
-15 11 -15 35 0 24 5 35 15 35 10 0 15 -11 15 -35z"/>
<path d="M1186 857 c-13 -10 -17 -24 -14 -67 3 -49 6 -56 31 -64 17 -6 37 -6
55 0 24 8 27 15 30 64 4 61 -11 80 -58 80 -14 0 -34 -6 -44 -13z m64 -62 c0
-28 -4 -35 -20 -35 -16 0 -20 7 -20 35 0 28 4 35 20 35 16 0 20 -7 20 -35z"/>
<path d="M1343 860 c-20 -8 -23 -17 -23 -65 0 -51 2 -56 27 -66 36 -13 67 -8
71 14 3 13 -3 17 -27 17 -29 0 -31 3 -31 35 0 32 2 35 31 35 24 0 30 4 27 18
-4 20 -42 26 -75 12z"/>
<path d="M1462 859 c-19 -7 -23 -15 -20 -41 2 -27 8 -34 28 -36 42 -6 47 -22
7 -22 -30 0 -37 -4 -37 -20 0 -15 7 -20 29 -20 46 0 81 17 81 39 0 34 -12 51
-35 51 -13 0 -27 5 -30 10 -4 6 7 10 24 10 24 0 31 4 31 20 0 15 -6 20 -27 19
-16 0 -38 -4 -51 -10z"/>
</g>
</svg>
